<?xml version="1.0" encoding="UTF-8" standalone="no"?>
<svg
   xmlns:dc="http://purl.org/dc/elements/1.1/"
   xmlns:cc="http://creativecommons.org/ns#"
   xmlns:rdf="http://www.w3.org/1999/02/22-rdf-syntax-ns#"
   xmlns:svg="http://www.w3.org/2000/svg"
   xmlns="http://www.w3.org/2000/svg"
   version="1.1"
   id="svg4157"
   height="117px"
   width="100px">
  <defs
     id="defs4159" />
  <metadata
     id="metadata4162">
    <rdf:RDF>
      <cc:Work
         rdf:about="">
        <dc:format>image/svg+xml</dc:format>
        <dc:type
           rdf:resource="http://purl.org/dc/dcmitype/StillImage" />
        <dc:title></dc:title>
      </cc:Work>
    </rdf:RDF>
  </metadata>
  <g
     id="layer1">
    <path
       id="path4146"
	   style="fill:#fff;fill-opacity:0.5"
       d="m 49.22958,116.56949 c -0.39261,-0.4387 -1.099032,-2.1046 -1.569824,-3.702 -0.855978,-2.9042 -0.855978,-2.9042 -3.354572,-2.753 -2.25464,0.1365 -2.64593,0.02 -4.007552,-1.1989 -1.722168,-1.5409 -1.588796,-1.7976 1.527648,-2.9404 1.489888,-0.5464 2.351132,-1.192 2.835896,-2.126 0.888812,-1.7126 0.68992,-1.8712 -1.304714,-1.0409 -2.29106,0.9538 -4.723832,0.8402 -7.05137,-0.3292 -2.337298,-1.1743 -2.635004,-2.2917 -0.655588,-2.4606 3.372796,-0.287805 6.2695,-1.895905 3.4151,-1.895905 -1.264828,0 -2.742422,-1.8985 -2.742422,-3.5237 0,-1.4555 0,-1.4555 2.471562,-1.1478 4.652706,0.5791 6.549448,-1.293 7.117232,-7.0253 0.28237,-2.8507 -0.231842,-4.5228 -0.821582,-2.6715 -0.888318,2.7887 -8.218416,8.036 -8.032246,5.75 0.08683,-1.0661 -0.327908,-0.9802 -3.885328,0.8047 -2.761504,1.3856 -3.941746,2.4519 -2.713932,2.4519 2.871352,0 4.225444,5.3881 2.01258,8.008405 -1.73097,2.0496 -3.771984,1.963 -3.771984,-0.1601 0,-2.500305 -0.714022,-3.718105 -2.756476,-4.701305 -2.516486,-1.2114 -2.935444,-1.1606 -3.935114,0.4772 -0.466688,0.7646 -1.30732,1.6191 -1.86807,1.899 -1.541119,0.7691 -1.88553,2.746405 -0.835539,4.797105 1.149513,2.245 1.176975,2.1905 -1.103576,2.1905 -4.390791,0 -5.685201,-4.4055 -2.474785,-8.422905 2.042232,-2.5556 2.020128,-3.3932 -0.07037,-2.667 -0.750387,0.2606 -2.327602,0.3465 -3.504921,0.1909 -1.426429,-0.1885 -2.7821335,-0.057 -4.0635657,0.3931 -2.9258062,1.0285 -3.1555768,0.937 -3.1555768,-1.2568 0,-3.9848 6.1425015,-6.5841 10.0837015,-4.2672 2.710956,1.5936 2.336709,0.5483 -0.990619,-2.7669 -3.032613,-3.0215 -3.23595,-3.1427 -4.7847885,-2.8532 -2.0112732,0.3759 -2.2600724,-0.8272 -0.5098344,-2.4655 2.2146009,-2.0729 10.1035769,-0.6829 10.1035769,1.7802 0,1.5061 0.947434,2.2711 4.459392,3.6006 2.278834,0.8628 2.278834,0.8628 8.215114,-2.1536 5.936286,-3.0163 5.936286,-3.0163 3.806134,-3.1525 -2.817476,-0.1801 -2.737864,-0.444 1.47068,-4.8738 3.508724,-3.6931 5.368228,-6.464 5.368228,-7.9991 0,-0.6995 -0.06719,-0.6967 -0.880202,0.036 -1.697348,1.5305 -2.42451,0.5917 -1.98454,-2.5619 0.67181,-4.81537 0.287504,-10.55601 -0.667306,-9.96807 -0.201624,0.12416 -0.490342,2.19331 -0.641592,4.59813 -0.435452,6.92354 -4.843042,18.49124 -5.950278,15.61634 -0.138386,-0.3594 0.29608,-1.7293 0.965482,-3.0444 2.886468,-5.6705 5.226306,-15.79658 3.846454,-16.64627 -0.539762,-0.33237 -0.569696,-0.22383 -1.613182,5.84809 -1.936202,11.26648 -7.138184,17.97448 -13.961836,18.00388 -3.190311,0.014 -5.117936,-1.8022 -3.329453,-3.1366 0.616621,-0.4601 1.711262,-1.2916 2.432527,-1.8478 2.494044,-1.9233 9.872798,-20.19925 9.073706,-22.4741 -0.0884,-0.25166 -2.026442,3.26217 -4.30676,7.80851 -4.700636,9.37179 -8.404517,13.92519 -10.351812,12.72609 -0.822938,-0.5067 -0.431811,-1.0925 1.326086,-1.986 1.210583,-0.6154 2.183116,-1.6312 3.110081,-3.2485 2.485533,-4.3367 8.637771,-16.52139 8.440915,-16.71752 -0.604864,-0.60266 -3.321248,2.73644 -5.10247,6.27219 -4.379913,8.69423 -11.052733,12.47043 -16.9656317,9.60113 -1.9440944,-0.9434 -1.8018954,-1.4437 1.0044148,-3.53395 5.0292439,-3.74603 9.9748149,-8.93433 11.6361469,-12.20723 2.078822,-4.09538 1.805814,-4.08427 -2.831696,0.11519 -3.73395,3.38125 -9.0439461,6.74454 -10.6483311,6.74454 -1.6967446,0 -0.4560586,-1.24918 2.9825482,-3.00298 3.6016329,-1.83695 11.2100379,-8.20388 10.5679779,-8.84359 -0.150799,-0.15026 -2.150708,0.66581 -4.444227,1.81348 -5.5654069,2.78491 -7.9069759,2.72867 -10.9668497,-0.2634 -2.85627391,-2.79299 -2.72539751,-3.79494 0.5807692,-4.44607 3.6416138,-0.71719 5.3516178,-1.28306 8.2637095,-2.73462 2.440129,-1.2163 4.214945,-2.71996 2.384344,-2.02006 -2.883564,1.10248 -12.7782023,2.12993 -12.7782023,1.32686 0,-0.23738 2.0047494,-0.66595 4.455,-0.95239 4.4082973,-0.51532 8.1016783,-1.59884 8.1016783,-2.37676 0,-0.22462 -1.088374,-0.27476 -2.465079,-0.11354 -5.8125029,0.68066 -10.2439201,-1.62158 -11.00844251,-5.71917 -0.5069024,-2.71681 -0.1728325,-2.86733 4.50523141,-2.02983 2.234558,0.40004 4.3088926,0.65229 4.6096356,0.56055 0.300743,-0.0918 1.1161045,-0.29155 1.8119065,-0.44401 2.547992,-0.55831 0.974365,-1.28747 -2.8597891,-1.32512 -3.807223,-0.0374 -7.4233362,-1.17707 -7.2033384,-2.27024 0.1232085,-0.61224 1.1650014,-0.45075 4.239312,0.65715 1.4390912,0.51861 3.0060016,0.81977 3.482022,0.66924 1.2758155,-0.40345 0.674339,-0.9457 -1.4189094,-1.2792 C 3.8286025,24.962725 0.00713839,20.159765 1.099396e-5,16.020325 -0.00333901,14.113695 0.75692289,14.127605 4.9960579,16.111725 c 3.4706514,1.62443 5.4711951,2.10684 5.6429561,1.36076 0.05658,-0.24575 -1.5566305,-1.00239 -3.5848997,-1.68143 -3.7878262,-1.26812 -6.58266571,-3.30722 -5.9440498,-4.33674 0.2354485,-0.37957 0.5975736,-0.28207 1.2891332,0.34711 2.5727514,2.3407 11.5668443,5.12818 10.3816613,3.21752 -0.13003,-0.20962 -1.596397,-0.82256 -3.2585995,-1.36209 C 4.2119567,11.933205 0.89441489,7.7001251 0.89441489,2.6480051 c 0,-2.17202999 1.01134121,-2.63948999 2.40085161,-1.10971 2.669129,2.93858 11.4775935,5.67359 12.6297985,3.92152 1.093187,-1.66232 2.568657,-1.49378 4.823406,0.55094 1.04275,0.94561 3.327682,2.46214 5.07763,3.37004 6.748648,3.5013199 8.398198,7.6678899 4.461486,11.2692199 -1.633746,1.49455 -2.052364,2.1388 -1.78003,2.7394 0.19584,0.43192 0.395212,2.09223 0.443046,3.6896 0.177072,5.91266 3.022502,8.75939 8.591056,8.59497 4.271734,-0.12613 6.229012,-2.0111 3.71351,-3.57632 -1.543716,-0.96054 -1.038904,-2.15534 2.061036,-4.8781 5.25484,-4.61547 5.094828,-8.18322 -0.367008,-8.18322 -3.146174,0 -2.09886,-2.26088 1.543046,-3.33103 2.216056,-0.65118 2.730602,-1.78378 1.138694,-2.50645 -1.283616,-0.58271 -6.350698,0.55829 -7.653306,1.72337 -1.25771,1.12494 -2.300368,0.19185 -2.46085,-2.20222 -0.15833,-2.36201 1.13444,-4.5880999 3.467604,-5.9710799 0.829186,-0.49149 2.790778,-2.08311 4.3591,-3.53691 4.518656,-4.18868996 11.30474,-4.29304 15.605988,-0.23996 1.27948,1.20566 3.068586,2.50111 3.975784,2.87878 1.97326,0.82147 2.089982,1.69341 0.511946,3.82451 -1.03084,1.3921199 -1.112466,1.8087899 -0.870372,4.4432499 0.227636,2.47712 -0.0024,3.96142 -1.553202,10.03593 -2.40234,9.40806 -2.351864,10.52033 0.477398,10.52033 0.671798,0 2.219336,0.2295 3.438976,0.50999 4.618012,1.06208 5.91738,-0.41074 6.100412,-6.91475 0.06339,-2.25246 0.273392,-4.44877 0.466674,-4.88069 0.267808,-0.59843 -0.156848,-1.25026 -1.784676,-2.7394 -4.011546,-3.66979 -2.288516,-7.77924 4.80299,-11.4551599 1.926562,-0.99865 3.712892,-2.20677 3.969618,-2.68472 1.171728,-2.18139 4.441998,-2.79586 5.589914,-1.05032 1.152204,1.75207 9.960666,-0.98294 12.629798,-3.92152 1.389512,-1.52977999 2.400854,-1.06231999 2.400854,1.10971 0,5.05212 -3.317544,9.2851999 -8.627846,11.0088499 -2.906386,0.94337 -3.87073,1.56498 -3.303952,2.12968 0.612048,0.60983 8.33551,-2.23325 10.11136,-3.72207 1.794538,-1.50449 2.336378,-0.485 0.640358,1.20483 -0.805456,0.80251 -2.680366,1.752 -4.979622,2.52176 -2.028268,0.67904 -3.641474,1.43569 -3.584896,1.68143 0.171758,0.74609 2.172302,0.26367 5.642954,-1.36076 4.239134,-1.9841 4.999337,-1.99801 4.996044,-0.0914 -0.007,4.13944 -3.828594,8.9424 -7.592082,9.54201 -2.093248,0.3335 -2.694726,0.87575 -1.41891,1.2792 0.47602,0.15053 2.042926,-0.15063 3.482022,-0.66924 3.074312,-1.10791 4.116104,-1.26939 4.239312,-0.65716 0.219998,1.09318 -3.396114,2.23286 -7.203342,2.27025 -3.83415,0.0377 -5.407778,0.76681 -2.859786,1.32511 0.695804,0.15246 1.511164,0.35227 1.811908,0.44401 0.300742,0.0918 2.375078,-0.1605 4.609636,-0.56055 4.678062,-0.83749 5.012135,-0.68697 4.505232,2.02984 -0.764524,4.09759 -5.19594,6.39982 -11.008444,5.71916 -1.376706,-0.16121 -2.46508,-0.11108 -2.46508,0.11354 0,0.77793 3.693382,1.86145 8.10168,2.37677 2.45025,0.28643 4.455,0.715 4.455,0.95239 0,0.80306 -9.894636,-0.22438 -12.778204,-1.32687 -1.8306,-0.6999 -0.05578,0.80376 2.384344,2.02007 2.912092,1.45156 4.622096,2.01742 8.26371,2.73461 3.204334,0.63108 3.434334,1.68218 0.896906,4.09891 -3.531732,3.36374 -5.578796,3.46492 -11.379154,0.56245 -2.240628,-1.12121 -4.19726,-1.91562 -4.34806,-1.76536 -0.642056,0.6397 6.966346,7.00663 10.567978,8.84358 3.438608,1.7538 4.67929,3.00299 2.98255,3.00299 -1.604386,0 -6.914382,-3.36329 -10.648332,-6.74453 -4.637514,-4.19946 -4.910518,-4.21056 -2.831696,-0.11518 1.661326,3.2729 6.606904,8.46119 11.636142,12.20723 2.791544,2.07923 2.94508,2.59203 1.051422,3.51153 -5.93344,2.881 -12.652228,-0.9662 -17.118622,-9.80213 -1.69102,-3.34537 -4.408246,-6.63487 -4.996482,-6.04879 -0.968108,0.96458 9.45327,18.89972 11.622556,20.00242 1.692006,0.86 2.07002,1.4475 1.254526,1.9496 -1.947294,1.1991 -5.651176,-3.3543 -10.351812,-12.72608 -2.280322,-4.54633 -4.21836,-8.06017 -4.306764,-7.80851 -0.799088,2.27485 6.579666,20.55089 9.07371,22.47409 0.721264,0.5562 1.815906,1.3877 2.432526,1.8478 1.788478,1.3344 -0.139142,3.1504 -3.329452,3.1366 -6.823648,-0.03 -12.025634,-6.7374 -13.961836,-18.00387 -1.043486,-6.07192 -1.073422,-6.18045 -1.613182,-5.84809 -1.379852,0.84969 0.959986,10.97586 3.846454,16.64636 0.669402,1.315 1.103868,2.685 0.965482,3.0443 -1.107236,2.8748 -5.514828,-8.6927 -5.950278,-15.61632 -0.403292,-6.41217 -0.799098,-6.30849 -2.193014,0.57446 -1.659228,8.19306 -0.84733,11.29726 4.261904,16.29476 3.31318,3.2407 3.386602,3.7208 0.596374,3.8991 -2.13015,0.1362 -2.13015,0.1362 3.806132,3.1525 5.936286,3.0164 5.936286,3.0164 8.21512,2.1537 3.511958,-1.3296 4.459392,-2.0946 4.459392,-3.6007 0,-2.4631 7.88898,-3.8531 10.103576,-1.7802 1.75024,1.6383 1.501436,2.8414 -0.509834,2.4655 -1.548838,-0.2895 -1.752176,-0.1683 -4.784788,2.8533 -3.327328,3.3152 -3.701576,4.3604 -0.99062,2.7668 3.9412,-2.3169 10.083702,0.2825 10.083702,4.2672 0,2.1938 -0.229774,2.2853 -3.155576,1.2568 -1.281432,-0.4505 -2.637138,-0.5816 -4.063566,-0.3931 -1.17732,0.1556 -2.754534,0.07 -3.504922,-0.1909 -2.090506,-0.7261 -2.112606,0.1114 -0.07037,2.667 3.119864,3.904105 1.912456,8.422905 -2.250554,8.422905 -1.967796,0 -2.193482,-0.538 -1.105284,-2.6346 0.99046,-1.9083 -2.44521,-7.642205 -4.579156,-7.642205 -2.578892,0 -5.038566,2.7408 -5.038566,5.614305 0,2.1231 -2.041018,2.2097 -3.77199,0.1601 -2.212854,-2.620205 -0.858766,-8.008405 2.012586,-8.008405 1.227814,0 0.04755,-1.0663 -2.713932,-2.4519 -3.55742,-1.7849 -3.972158,-1.8708 -3.885328,-0.8047 0.186168,2.286 -7.143928,-2.9613 -8.032248,-5.75 -0.589738,-1.8513 -1.103948,-0.1792 -0.82158,2.6715 0.567782,5.7323 2.464526,7.6045 7.117232,7.0253 2.47156,-0.3077 2.47156,-0.3077 2.47156,1.2104 0,1.6308 -1.48351,3.4611 -2.805266,3.4611 -2.803618,0 0.154052,1.6123 3.477946,1.895905 1.979412,0.1689 1.681706,1.2863 -0.655588,2.4606 -2.32754,1.1694 -4.76031,1.283 -7.051372,0.3293 -1.994632,-0.8304 -2.193524,-0.6718 -1.304712,1.0408 0.484764,0.934 1.346008,1.5796 2.835896,2.126 3.116442,1.1428 3.249816,1.3995 1.527648,2.9405 -1.361622,1.2182 -1.752912,1.3353 -4.007552,1.1988 -2.498592,-0.1512 -2.498592,-0.1512 -3.348084,2.753 -1.076578,3.6808 -2.075042,4.8665 -3.117142,3.7021 z" />
  </g>
</svg>
