<?xml version="1.0" encoding="UTF-8" standalone="no"?>
<svg
   xmlns:dc="http://purl.org/dc/elements/1.1/"
   xmlns:cc="http://creativecommons.org/ns#"
   xmlns:rdf="http://www.w3.org/1999/02/22-rdf-syntax-ns#"
   xmlns:svg="http://www.w3.org/2000/svg"
   xmlns="http://www.w3.org/2000/svg"
   version="1.1"
   id="svg2"
   viewBox="0 0 1000 1000"
   height="1000"
   width="1000">
  <title
     id="title4684">Logo STV Wisen</title>
  <defs
     id="defs4">
    <marker
       style="overflow:visible"
       id="DiamondLend"
       refX="0.0"
       refY="0.0"
       orient="auto">
      <path
         transform="scale(0.8) translate(-7,0)"
         style="fill-rule:evenodd;stroke:#000000;stroke-width:1pt;stroke-opacity:1;fill:#000000;fill-opacity:1"
         d="M 0,-7.0710768 L -7.0710894,0 L 0,7.0710589 L 7.0710462,0 L 0,-7.0710768 z "
         id="path4897" />
    </marker>
    <clipPath
       id="clipPath4400"
       clipPathUnits="userSpaceOnUse">
      <circle
         r="260"
         cy="500"
         cx="500"
         id="circle4402"
         style="display:inline;fill:#001f35;fill-opacity:1;stroke:none;stroke-width:1;stroke-miterlimit:4;stroke-dasharray:none;stroke-opacity:1" />
    </clipPath>
    <clipPath
       id="clipPath4419"
       clipPathUnits="userSpaceOnUse">
      <circle
         transform="matrix(-0.70710678,-0.70710678,0.70710678,-0.70710678,0,0)"
         r="260"
         cy="500"
         cx="500"
         id="circle4421"
         style="display:inline;fill:#001f35;fill-opacity:1;stroke:none;stroke-width:1;stroke-miterlimit:4;stroke-dasharray:none;stroke-opacity:1" />
    </clipPath>
    <clipPath
       id="clipPath4453"
       clipPathUnits="userSpaceOnUse">
      <circle
         r="260"
         cy="500"
         cx="500"
         id="circle4455"
         style="display:inline;fill:#001f35;fill-opacity:1;stroke:none;stroke-width:1;stroke-miterlimit:4;stroke-dasharray:none;stroke-opacity:1" />
    </clipPath>
    <clipPath
       id="clipPath4533"
       clipPathUnits="userSpaceOnUse">
      <circle
         r="260"
         cy="500"
         cx="500"
         id="circle4535"
         style="display:inline;fill:#001f35;fill-opacity:1;stroke:none;stroke-width:1;stroke-miterlimit:4;stroke-dasharray:none;stroke-opacity:1" />
    </clipPath>
    <clipPath
       id="clipPath4234"
       clipPathUnits="userSpaceOnUse">
      <circle
         r="270"
         cy="500"
         cx="500"
         id="circle4236"
         style="fill:#001626;fill-opacity:1;fill-rule:evenodd;stroke:none;stroke-width:1;stroke-linecap:butt;stroke-linejoin:miter;stroke-miterlimit:4.5;stroke-dasharray:none;stroke-dashoffset:0;stroke-opacity:1" />
    </clipPath>
  </defs>
  <metadata
     id="metadata7">
    <rdf:RDF>
      <cc:Work
         rdf:about="">
        <dc:format>image/svg+xml</dc:format>
        <dc:type
           rdf:resource="http://purl.org/dc/dcmitype/StillImage" />
        <dc:title>Logo STV Wisen</dc:title>
      </cc:Work>
    </rdf:RDF>
  </metadata>
  <g
     style="display:inline"
     id="layer1">
    <circle
       r="500"
       cy="500"
       cx="500"
       id="darkblue-circle-500"
       style="fill:#001626;fill-opacity:1;stroke:none;stroke-width:1;stroke-miterlimit:4;stroke-dasharray:none;stroke-opacity:1" />
  </g>
  <g
     style="display:inline"
     id="layer2">
    <circle
       r="485"
       cy="500"
       cx="500"
       id="gold-circle-485"
       style="fill:#ffbb33;fill-opacity:1;stroke:none;stroke-width:1;stroke-miterlimit:4;stroke-dasharray:none;stroke-opacity:1" />
  </g>
  <g
     style="display:inline"
     id="layer3">
    <circle
       r="475"
       cy="500"
       cx="500"
       id="darkblue-circle-475"
       style="fill:#001626;fill-opacity:1;stroke:none;stroke-width:1;stroke-miterlimit:4;stroke-dasharray:none;stroke-opacity:1" />
  </g>
  <g
     style="display:inline"
     id="layer4">
    <circle
       r="460"
       cy="500"
       cx="500"
       id="blue-circle-460"
       style="fill:#001f35;fill-opacity:1;stroke:none;stroke-width:1;stroke-miterlimit:4;stroke-dasharray:none;stroke-opacity:1" />
  </g>
  <g
     style="display:inline"
     id="layer5">
    <circle
       r="300"
       cy="500"
       cx="500"
       id="darkblue-circle-300"
       style="fill:#001626;fill-opacity:1;stroke:none;stroke-width:1;stroke-miterlimit:4;stroke-dasharray:none;stroke-opacity:1" />
  </g>
  <g
     style="display:inline"
     id="layer6">
    <circle
       r="285"
       cy="500"
       cx="500"
       id="gold-circle-285"
       style="fill:#ffbb33;fill-opacity:1;stroke:none;stroke-width:1;stroke-miterlimit:4;stroke-dasharray:none;stroke-opacity:1" />
  </g>
  <g
     style="display:inline"
     id="g20">
    <circle
       r="266"
       cy="500"
       cx="500"
       id="darkblue-emptycircle-275"
       style="fill:none;fill-opacity:1;fill-rule:evenodd;stroke:#001626;stroke-width:15;stroke-linecap:butt;stroke-linejoin:miter;stroke-miterlimit:4.5;stroke-dasharray:none;stroke-dashoffset:0;stroke-opacity:1" />
  </g>
  <g
     style="display:inline"
     id="layer7">
    <circle
       r="260"
       cy="500"
       cx="500"
       id="blue-circle-260"
       style="fill:#001f35;fill-opacity:1;stroke:none;stroke-width:1;stroke-miterlimit:4;stroke-dasharray:none;stroke-opacity:1" />
    <circle
       r="260"
       cy="500"
       cx="500"
       id="blue-circle-260-3"
       style="display:inline;fill:#001f35;fill-opacity:1;stroke:none;stroke-width:1;stroke-miterlimit:4;stroke-dasharray:none;stroke-opacity:1" />
  </g>
  <g
     style="display:inline"
     id="layer8">
    <path
       clip-path="url(#clipPath4234)"
       id="rect4193"
       d="M 500,75.736328 429.28906,146.44727 853.55273,570.71094 924.26367,500 500,75.736328 Z M 358.57812,217.1582 287.86719,287.86719 712.13281,712.13281 782.8418,641.42188 358.57812,217.1582 Z M 217.1582,358.57812 146.44727,429.28906 570.71094,853.55273 641.42188,782.8418 217.1582,358.57812 Z"
       style="fill:#001626;fill-opacity:1;fill-rule:evenodd;stroke:none;stroke-width:1;stroke-linecap:butt;stroke-linejoin:miter;stroke-miterlimit:4.5;stroke-dasharray:none;stroke-dashoffset:0;stroke-opacity:1" />
  </g>
  <g
     style="display:inline"
     id="layer9">
    <g
       style="fill:#ffffff"
       transform="matrix(1.3917369,0,0,1.3917369,347.90303,333.75164)"
       id="layer1-7">
      <path
         style="fill:#ffffff"
         d="m 107.67515,249.91688 c -0.82076,-0.9205 -2.29755,-4.4159 -3.28175,-7.7675 -1.78944,-6.0937 -1.78944,-6.0937 -7.012804,-5.7764 -4.71337,0.2864 -5.53137,0.041 -8.37787,-2.5154 -3.60023,-3.2331 -3.32141,-3.7717 3.19358,-6.1696 3.11464,-1.1464 4.91509,-2.5011 5.9285,-4.4608 1.85808,-3.5932 1.44229,-3.9261 -2.72753,-2.1838 -4.78951,2.0012 -9.87527,1.7628 -14.74104,-0.6908 -4.88617,-2.464 -5.50853,-4.8084 -1.37052,-5.1628 7.0509,-0.6038 13.10652,-3.9779 7.13934,-3.9779 -2.64415,0 -5.73309,-3.9835 -5.73309,-7.3935 0,-3.0539 0,-3.0539 5.16685,-2.4083 9.72658,1.2152 13.69176,-2.713 14.878724,-14.7403 0.5903,-5.9814 -0.48467,-9.4897 -1.717534,-5.6053 -1.85705,5.8511 -17.18077,16.861 -16.79158,12.0646 0.18152,-2.237 -0.6855,-2.0568 -8.12236,1.6884 -5.77298,2.9072 -8.2403,5.1444 -5.67353,5.1444 6.00262,0 8.83338,11.3054 4.20734,16.8031 -3.61863,4.3005 -7.88541,4.1188 -7.88541,-0.3358 0,-5.2461 -1.49268,-7.8013 -5.76247,-9.8642 -5.26077,-2.5418 -6.13661,-2.4351 -8.22644,1.0013 -0.97562,1.6043 -2.73298,3.3972 -3.90524,3.9844 -3.22174,1.6136 -3.94174,5.7625 -1.74671,10.0652 2.40308,4.7104 2.46049,4.596 -2.30705,4.596 -9.17904,0 -11.88503,-9.2435 -5.17359,-17.6727 4.26933,-5.3621 4.22312,-7.1195 -0.14712,-5.596 -1.5687,0.5468 -4.8659,0.7271 -7.32711,0.4006 -2.98198,-0.3955 -5.81611,-0.1204 -8.49497,0.8248 -6.116459,2.158 -6.596799,1.966 -6.596799,-2.637 0,-8.3607 12.841029,-13.8147 21.080189,-8.9534 5.66731,3.3437 4.88494,1.1506 -2.07091,-5.8053 -6.33974,-6.3397 -6.76482,-6.5941 -10.0027,-5.9867 -4.204609,0.7888 -4.724729,-1.7356 -1.06582,-5.173 4.62967,-4.3493 21.12174,-1.4329 21.12174,3.7351 0,3.1601 1.98063,4.7652 9.32245,7.5549 4.76395,1.8102 4.76395,1.8102 17.17387,-4.5187 12.40993,-6.3288 12.40993,-6.3288 7.9568,-6.6146 -5.88999,-0.3779 -5.72356,-0.9315 3.07449,-10.226 7.33506,-7.749 11.22239,-13.5627 11.22239,-16.7837 0,-1.4676 -0.14047,-1.4617 -1.84008,0.076 -3.54834,3.2112 -5.06849,1.2416 -4.14872,-5.3753 1.40443,-10.10357 0.60103,-22.14848 -1.39502,-20.91486 -0.4215,0.2605 -1.02507,4.60197 -1.34126,9.64772 -0.91032,14.52694 -10.12448,38.79794 -12.43918,32.76594 -0.2893,-0.754 0.61896,-3.6284 2.01836,-6.3876 6.03422,-11.8978 10.9257,-33.14423 8.04109,-34.92703 -1.12838,-0.69737 -1.19096,-0.46966 -3.37239,12.27036 -4.04767,23.63917 -14.92252,37.71387 -29.18751,37.77557 -6.66941,0.029 -10.69915,-3.7815 -6.96029,-6.5813 1.28906,-0.9653 3.57743,-2.71 5.08525,-3.877 5.21385,-4.0354 20.63929,-42.38175 18.96877,-47.15482 -0.1848,-0.52802 -4.23632,6.84465 -9.00337,16.38371 -9.82678,19.66381 -17.56982,29.21771 -21.64068,26.70171 -1.72037,-1.0632 -0.90271,-2.2923 2.77221,-4.1671 2.53075,-1.2911 4.56385,-3.4225 6.50169,-6.8159 5.19606,-9.09918 18.05744,-34.6649 17.64591,-35.07642 -1.26448,-1.26449 -6.94314,5.74157 -10.66682,13.16021 -9.1563,18.24201 -23.10597,26.16531 -35.467009,20.14501 -4.06417,-1.9794 -3.7669,-3.0292 2.09975,-7.41494 10.513739,-7.85987 20.852559,-18.74587 24.325609,-25.61302 4.34582,-8.59285 3.77509,-8.56955 -5.91972,0.24168 -7.8059,7.0945 -18.906559,14.15131 -22.260559,14.15131 -3.54708,0 -0.9534,-2.62103 6.235079,-6.30082 7.52929,-3.85425 23.43482,-17.21325 22.09258,-18.55548 -0.31525,-0.31527 -4.4961,1.39699 -9.29075,3.80502 -11.6346,5.84325 -16.529699,5.72525 -22.926429,-0.55268 -5.9711004,-5.86019 -5.6975004,-7.962464 1.21411,-9.328654 7.61287,-1.5048 11.187669,-2.6921 17.275459,-5.73774 5.10114,-2.55203 8.81143,-5.70698 4.98452,-4.23846 -6.02815,2.31322 -26.7130994,4.46897 -26.7130994,2.784 0,-0.49807 4.1909704,-1.39729 9.3132704,-1.99828 9.215639,-1.08124 16.936729,-3.35466 16.936729,-4.98689 0,-0.47131 -2.27527,-0.57649 -5.1533,-0.23823 -12.151159,1.42813 -21.4151294,-3.40238 -23.0133794,-11.99988 -1.05969,-5.70037 -0.36131,-6.01618 9.4182804,-4.25896 4.67139,0.83937 9.007829,1.36863 9.636539,1.17614 0.62871,-0.19249 2.33324,-0.61172 3.78783,-0.93162 5.32663,-1.17143 2.03693,-2.70134 -5.97845,-2.78034 -7.959079,-0.0784 -15.5186394,-2.46969 -15.0587294,-4.76338 0.25757,-1.2846 2.43546,-0.94575 8.8623704,1.37883 3.00845,1.08814 6.284109,1.72002 7.279239,1.40418 2.66712,-0.84651 1.40972,-1.98426 -2.966259,-2.684 -7.86766,-1.25809 -15.8565104,-11.335574 -15.8714104,-20.020894 -0.007,-4.00046 1.58234,-3.97128 10.4443404,0.19175 7.255469,3.40835 11.437649,4.42055 11.796719,2.85513 0.11827,-0.51563 -3.25417,-2.10321 -7.494309,-3.52796 -7.91853,-2.66075 -13.7612004,-6.93915 -12.4261604,-9.09928 0.49221,-0.79641 1.24924,-0.59182 2.69496,0.72832 5.3783904,4.91122 24.1807294,10.75986 21.7030794,6.75093 -0.27183,-0.43981 -3.3373,-1.72587 -6.81217,-2.8579 -11.101299,-3.61654 -18.0366894,-12.49832 -18.0366894,-23.09861 0,-4.5573203 2.11423,-5.5381303 5.0190304,-2.3283703 5.57987,6.1656903 23.994149,11.9042403 26.402859,8.2280803 2.28533,-3.48785 5.36983,-3.13424 10.08343,1.15596 2.17989,1.98408 6.95659,5.16602 10.61489,7.07097 14.10819,7.34641 17.55661,16.08865 9.32683,23.64489 -3.41538,3.13585 -4.29051,4.48759 -3.72119,5.74778 0.40941,0.90624 0.8262,4.389884 0.9262,7.741454 0.37017,12.40587 6.3186,18.37882 17.95978,18.03384 8.93015,-0.26465 13.02188,-4.21965 7.76317,-7.50378 -3.22717,-2.01539 -2.17185,-4.5223 4.30864,-10.23515 10.985354,-9.684104 10.650844,-17.169914 -0.76724,-17.169914 -6.57714,0 -4.38771,-4.74374 3.22577,-6.98911 4.632714,-1.36629 5.708384,-3.74269 2.380464,-5.25899 -2.683424,-1.22265 -13.276264,1.1714 -15.999394,3.61596 -2.62927,2.36032 -4.80897,0.40253 -5.14446,-4.62068 -0.33099,-4.95592 2.37157,-9.62669 7.2491,-12.52843 1.73343,-1.03125 5.83418,-4.37074 9.11279,-7.42108 9.446344,-8.7886603 23.632794,-9.0075903 32.624644,-0.50348 2.67478,2.52969 6.41494,5.24779 8.31146,6.04021 4.12514,1.72359 4.36915,3.55309 1.07023,8.02451 -2.15499,2.92094 -2.32563,3.79519 -1.81953,9.32277 0.47588,5.19745 -0.005,8.31179 -3.247,21.057224 -5.02214,19.73986 -4.91662,22.0736 0.99801,22.0736 1.40441,0 4.63957,0.48153 7.18925,1.07006 9.65405,2.22843 12.37041,-0.86182 12.75304,-14.50842 0.13252,-4.72609 0.57153,-9.334354 0.97559,-10.240594 0.55986,-1.25563 -0.32789,-2.62328 -3.7309,-5.74778 -8.38622,-7.69989 -4.78419,-16.32225 10.04075,-24.03503 4.02752,-2.09535 7.76188,-4.63021 8.29857,-5.63303 2.44952,-4.57696 9.28609,-5.86623 11.68583,-2.20376 2.40871,3.67616 20.82298,-2.06239 26.40286,-8.2280803 2.9048,-3.20976 5.01903,-2.22895 5.01903,2.3283703 0,10.60029 -6.93539,19.48207 -18.03669,23.09861 -6.07586,1.97937 -8.09184,3.28361 -6.90698,4.46847 1.2795,1.27951 17.42556,-4.68578 21.13801,-7.8096 3.75152,-3.1567 4.88425,-1.01763 1.33868,2.52796 -1.68382,1.68381 -5.60336,3.676 -10.41,5.29111 -4.24014,1.42475 -7.61258,3.01233 -7.4943,3.52796 0.35906,1.56542 4.54124,0.55322 11.79671,-2.85513 8.862,-4.16303 10.45121,-4.19221 10.44434,-0.19175 -0.0149,8.68532 -8.00376,18.762804 -15.87141,20.020894 -4.37598,0.69974 -5.63338,1.83749 -2.96626,2.684 0.99513,0.31584 4.27078,-0.31604 7.27924,-1.40418 6.42691,-2.32458 8.6048,-2.66343 8.86237,-1.37883 0.45991,2.29369 -7.09965,4.68493 -15.05874,4.76338 -8.01537,0.079 -11.30507,1.60891 -5.97844,2.78034 1.45459,0.3199 3.15912,0.73913 3.78783,0.93162 0.62871,0.19249 4.96515,-0.33677 9.63654,-1.17614 9.77958,-1.75722 10.47797,-1.44141 9.41828,4.25896 -1.59825,8.5975 -10.86222,13.42801 -23.01338,11.99988 -2.87803,-0.33826 -5.1533,-0.23308 -5.1533,0.23823 0,1.63223 7.72109,3.90565 16.93673,4.98689 5.1223,0.60099 9.31327,1.50021 9.31327,1.99828 0,1.68497 -20.68494,-0.47078 -26.7131,-2.784 -3.82691,-1.46852 -0.11662,1.68643 4.98452,4.23846 6.08779,3.04564 9.66259,4.23294 17.27546,5.73774 6.69873,1.32411 7.17955,3.529504 1.875,8.600254 -7.38316,7.05774 -11.66259,7.27003 -23.78836,1.18011 -4.68408,-2.35249 -8.77446,-4.01932 -9.08971,-3.70405 -1.34223,1.34222 14.56329,14.70123 22.09258,18.55548 7.18848,3.67979 9.78215,6.30082 6.23508,6.30082 -3.354,0 -14.45466,-7.05681 -22.26056,-14.15127 -9.69482,-8.81124 -10.26554,-8.83453 -5.91972,-0.24168 3.47304,6.86715 13.81187,17.75315 24.3256,25.61302 5.83578,4.36269 6.15675,5.43859 2.19802,7.36789 -12.40398,6.0448 -26.44975,-2.0272 -35.78684,-20.56671 -3.53511,-7.01921 -9.21553,-13.92118 -10.44525,-12.69147 -2.02385,2.02385 19.76226,39.65508 24.2972,41.96868 3.53717,1.8045 4.32742,3.0371 2.62261,4.0908 -4.07086,2.5159 -11.8139,-7.038 -21.64068,-26.70176 -4.76706,-9.53906 -8.81857,-16.91173 -9.00338,-16.38371 -1.67051,4.77306 13.75493,43.11947 18.96878,47.15487 1.50782,1.167 3.79619,2.9116 5.08525,3.8769 3.73885,2.7999 -0.29088,6.6102 -6.96029,6.5813 -14.26498,-0.062 -25.13984,-14.1363 -29.18751,-37.77553 -2.18143,-12.74001 -2.24401,-12.96772 -3.37239,-12.27035 -2.88461,1.78279 2.00687,23.02928 8.04109,34.92708 1.3994,2.7592 2.30766,5.6336 2.01836,6.3875 -2.3147,6.032 -11.52886,-18.2389 -12.43918,-32.76589 -0.84309,-13.4539 -1.67053,-13.23635 -4.58454,1.20533 -3.46865,17.19056 -1.77136,23.70376 8.9096,34.18936 6.92627,6.7997 7.07976,7.8069 1.24673,8.1811 -4.45312,0.2858 -4.45312,0.2858 7.9568,6.6146 12.40993,6.3289 12.40993,6.3289 17.17388,4.5187 7.34182,-2.7897 9.32245,-4.3948 9.32245,-7.5549 0,-5.168 16.49208,-8.0844 21.12174,-3.7351 3.65891,3.4374 3.13878,5.9618 -1.06582,5.173 -3.23788,-0.6074 -3.66296,-0.353 -10.0027,5.9867 -6.95585,6.9559 -7.73822,9.149 -2.07091,5.8053 8.23916,-4.8613 21.08019,0.5927 21.08019,8.9534 0,4.603 -0.48035,4.795 -6.5968,2.637 -2.67886,-0.9452 -5.51299,-1.2203 -8.49497,-0.8248 -2.46121,0.3265 -5.75841,0.1462 -7.32711,-0.4006 -4.37025,-1.5235 -4.41645,0.2339 -0.14712,5.596 6.52214,8.1914 3.99803,17.6727 -4.70483,17.6727 -4.11372,0 -4.58552,-1.1287 -2.31062,-5.5279 2.07058,-4.004 -5.11176,-16.0346 -9.57282,-16.0346 -5.39123,0 -10.53323,5.7506 -10.53323,11.7798 0,4.4546 -4.26679,4.6363 -7.88542,0.3358 -4.62602,-5.4977 -1.79527,-16.8031 4.20735,-16.8031 2.56677,0 0.0994,-2.2372 -5.67353,-5.1444 -7.43686,-3.7452 -8.30388,-3.9254 -8.12236,-1.6884 0.38919,4.7964 -14.93453,-6.2135 -16.79158,-12.0646 -1.23286,-3.8844 -2.30783,-0.3761 -1.71753,5.6053 1.18696,12.0273 5.15214,15.9555 14.87872,14.7403 5.16685,-0.6456 5.16685,-0.6456 5.16685,2.5397 0,3.4217 -3.10131,7.2621 -5.86447,7.2621 -5.86102,0 0.32205,3.3829 7.27072,3.9779 4.138,0.3544 3.51564,2.6988 -1.37052,5.1628 -4.86577,2.4536 -9.95153,2.692 -14.74104,0.6908 -4.16982,-1.7423 -4.58561,-1.4094 -2.72753,2.1838 1.01341,1.9597 2.81386,3.3144 5.9285,4.4608 6.51499,2.3979 6.79381,2.9365 3.19358,6.1696 -2.8465,2.5562 -3.6645,2.8018 -8.37787,2.5154 -5.22336,-0.3173 -5.22336,-0.3173 -6.99924,5.7764 -2.25061,7.7228 -4.33792,10.2108 -6.51645,7.7675 z"
         id="path4146" />
    </g>
  </g>
  <g
     style="display:inline"
     id="layer10">
    <g
       id="Label19"
       style="fill:#ffffff;fill-opacity:1;stroke:none;stroke-width:1px;stroke-linecap:butt;stroke-linejoin:miter;stroke-opacity:1">
      <path
         id="Letter1"
         d="m 80.545037,493.29399 0,-12.84501 1.132343,0 q 0.389242,1.30927 0.743099,1.69852 0.353857,0.38924 1.096957,0.38924 0.353857,0 0.9908,-0.14154 l 3.043171,-0.77849 0,-2.08776 q 0,-1.06157 -0.4954,-1.62774 -0.4954,-0.56617 -1.769285,-0.92003 l 0,-1.13234 14.755838,0 0,1.13234 q -1.273885,0.35386 -1.769285,0.92003 -0.495399,0.53079 -0.495399,1.62774 l 0,40.90588 q 0,1.09696 0.495399,1.66313 0.4954,0.56617 1.769285,0.92003 l 0,1.13234 -14.755838,0 0,-1.13234 q 1.273885,-0.35386 1.769285,-0.92003 0.4954,-0.56617 0.4954,-1.66313 l 0,-30.57325 -3.326257,0.81387 q -1.167728,0.28309 -1.698513,0.81387 -0.4954,0.53079 -0.849257,1.80467 l -1.132343,0 z" />
      <path
         id="Letter9"
         d="m 113.8076,521.35486 6.26327,-11.57113 0.9908,0.4954 q -0.21232,0.88465 -0.21232,1.38005 0,1.41542 2.26469,2.83085 1.87544,1.16773 4.84784,1.94622 2.9724,0.7431 5.66171,0.7431 5.90942,0 10.08493,-3.07856 2.7247,-2.05237 4.03397,-4.88323 1.34466,-2.83085 1.66313,-7.431 -3.57396,3.18472 -7.25407,4.60015 -3.64473,1.38004 -8.45718,1.38004 -7.6787,0 -13.16349,-3.64473 -3.11394,-2.08776 -4.88322,-5.41401 -1.69852,-3.2201 -1.69852,-7.04176 0,-7.64331 6.33404,-12.20807 6.15712,-4.4586 15.56971,-4.4586 10.26186,0 16.06511,5.16632 3.85705,3.39703 5.73249,8.70488 1.80467,5.09554 1.80467,10.6511 0,11.28804 -6.97099,18.25902 -7.21868,7.21869 -18.71903,7.21869 -4.03397,0 -7.25407,-0.7431 -3.2201,-0.70772 -7.57254,-2.61855 -1.4862,-0.67232 -2.30007,-0.67232 -0.60156,0 -1.20312,0.46001 -0.46001,0.38924 -0.67233,0.53079 l -0.95541,-0.60156 z m 21.76221,-38.39349 q -5.41402,0 -8.81104,2.65393 -2.83086,2.19391 -2.83086,5.73248 0,3.4678 2.83086,5.6971 3.36164,2.65393 8.81104,2.65393 5.48478,0 8.84642,-2.65393 2.83086,-2.2293 2.83086,-5.62633 0,-3.57395 -2.83086,-5.80325 -3.29087,-2.61855 -8.84642,-2.65393 z" />
    </g>
    <g
       id="Label53"
       style="fill:#ffffff;fill-opacity:1;stroke:none;stroke-width:1px;stroke-linecap:butt;stroke-linejoin:miter;stroke-opacity:1"
       transform="scale(1.0000021,0.99999791)">
      <path
         id="Letter5"
         d="m 832.18225,518.60494 8.28748,-10.96974 0.89409,0.61899 q -0.24072,0.89408 -0.24072,1.51306 0,1.75379 2.78542,3.50757 5.77717,3.71389 12.72352,3.71389 5.19258,0 8.18432,-2.16644 3.23246,-2.37276 3.23246,-6.49931 0,-3.81705 -3.12929,-6.08666 -3.09491,-2.2696 -8.32187,-2.2696 -3.85145,0 -7.29024,1.23797 -3.4044,1.23796 -3.4044,2.64787 0,0.48143 0.48143,1.37551 l -0.82531,0.72215 -12.10454,-12.17332 0.72215,-0.82531 q 0.2751,0.0344 0.44704,0.0344 1.65062,0 1.65062,-2.09766 l 0,-9.9381 q 0,-1.1348 -0.51582,-1.7194 -0.48143,-0.58459 -1.685,-0.89408 l 0,-1.10041 37.2077,0 q 1.06602,0 1.58184,-0.48143 0.55021,-0.48144 0.92847,-1.75379 l 1.10042,0 0,12.41403 -1.10042,0 q -0.37826,-1.23796 -0.92847,-1.685 -0.51582,-0.48143 -1.58184,-0.48143 l -26.78817,0 0,10.11004 q 5.674,-2.81981 13.17056,-2.81981 9.80055,0 15.40578,4.57359 5.19257,4.22971 5.19257,11.17606 0,5.29574 -3.1293,9.49106 -5.36451,7.22146 -18.25997,7.22146 -8.32187,0 -14.33975,-2.95736 -1.47868,-0.72214 -4.81431,-2.68225 -1.44429,-0.8597 -2.61348,-0.8597 -0.65337,0 -2.02888,0.79092 l -0.89409,-0.68776 z" />
      <path
         id="Letter3"
         d="m 920.00893,499.55405 q 7.80606,2.92297 7.80606,10.38514 0,7.63412 -6.70564,11.58872 -5.88033,3.47318 -14.71802,3.47318 -9.3879,0 -17.02201,-3.6795 -3.19807,-1.54746 -4.12655,-1.54746 -0.8597,0 -2.33837,1.27235 l -0.99725,-0.51582 5.50206,-12.68913 1.03164,0.44704 q -0.17194,0.41266 -0.17194,0.72215 0,1.85695 1.89133,3.4044 2.44154,1.9945 6.98074,3.30124 4.53921,1.27235 9.1128,1.27235 4.33287,0 7.42778,-1.4099 3.92022,-1.78817 3.92022,-5.60523 0,-3.30124 -2.78542,-4.98624 -2.78542,-1.68501 -8.21871,-1.68501 -3.30123,0 -4.57359,0.48143 -1.23796,0.48143 -1.58184,1.89133 l -1.10041,0 0,-11.51994 1.10041,0 q 0.41266,1.54746 1.51307,2.02889 1.1348,0.44704 4.40165,0.44704 5.08941,0 7.80605,-1.78817 2.37277,-1.51307 2.37277,-4.36726 0,-2.92298 -2.64787,-4.50482 -2.64787,-1.58184 -7.56534,-1.58184 -6.94635,0 -12.2077,3.06052 -2.54471,1.51307 -2.54471,3.16369 0,0.65337 0.44705,1.54745 l -0.8597,0.68776 -7.90922,-9.73177 0.8597,-0.68776 q 1.27235,0.58459 1.89134,0.58459 0.68775,0 1.85694,-0.79092 8.63136,-5.81155 19.29161,-5.81155 7.42779,0 12.51719,2.92297 2.92298,1.685 4.57359,4.36726 1.68501,2.78542 1.68501,6.22421 0,6.15543 -5.91472,9.62861 z" />
    </g>
  </g>
  <g
     style="opacity:0.97000002"
     id="layer11">
    <g
       id="LabelStv"
       style="fill:#ffffff;fill-opacity:1;stroke:none;stroke-width:1px;stroke-linecap:butt;stroke-linejoin:miter;stroke-opacity:1">
      <path
         id="LetterSInStv"
         d="m 440.79711,93.607963 -4.66049,19.219157 -1.69894,-0.50179 q -0.0728,-0.54723 -0.14859,-0.86799 -0.42935,-1.81766 -4.02254,-3.1702 -11.08183,-4.38133 -23.91234,-1.35063 -5.66681,1.33856 -9.66878,3.75139 -2.90161,1.81426 -4.37453,4.41991 -1.41946,2.59302 -0.82595,5.10566 0.97235,4.11646 6.29776,4.43896 2.74289,0.1423 11.39169,-0.99754 l 8.59534,-1.12721 q 7.67388,-0.966 12.59981,-0.66203 4.97938,0.29134 9.15475,1.95792 4.25407,1.76086 7.34927,5.54521 3.14865,3.77172 4.29779,8.63662 1.81841,7.69831 -1.73908,14.86028 -3.20264,6.51371 -12.04637,11.36841 -6.58955,3.64492 -14.66208,5.55174 -14.48778,3.42216 -30.24297,-0.19393 -3.32212,-0.68281 -3.91018,-0.54391 -0.69499,0.16417 -1.91407,1.69388 l -1.73977,-0.4357 3.6818,-19.77819 1.72715,0.38224 q 0.11365,0.48115 0.16416,0.69499 0.56825,2.40572 3.34691,3.89422 4.20735,2.27989 12.00835,2.80783 7.80099,0.52795 14.32317,-1.01266 7.11024,-1.67951 11.56727,-5.27225 2.46425,-1.99317 3.60378,-4.57651 1.1269,-2.6368 0.55864,-5.04253 -0.85869,-3.63531 -5.12752,-4.26382 -2.97904,-0.42519 -11.48009,0.62331 l -8.43495,1.08933 q -8.48842,1.10196 -12.08668,1.1617 -3.61089,0.006 -7.43645,-0.89627 -5.43316,-1.25658 -9.34962,-5.41138 -3.5355,-3.73678 -4.86143,-9.35013 -2.18463,-9.24866 2.75021,-16.79241 6.45828,-9.935566 23.13794,-13.875472 7.00332,-1.654256 13.38531,-1.637777 6.36936,-0.03698 16.30076,1.624595 3.39115,0.497172 4.08613,0.33301 1.12267,-0.265186 2.32912,-1.848358 l 1.68631,0.448325 z" />
      <path
         id="LetterTInStv"
         d="m 510.05824,96.921516 -0.29988,56.853454 q -0.009,1.70286 0.75541,2.58581 0.7644,0.88295 2.73901,1.44269 l -0.009,1.75779 -23.40055,-0.12343 0.009,-1.75779 q 1.98041,-0.53888 2.75408,-1.41372 0.77366,-0.87483 0.78265,-2.57769 l 0.29988,-56.853458 -23.29069,-0.12285 q -1.64793,-0.0087 -2.53088,0.755704 -0.88266,0.709466 -1.4424,2.684084 l -1.75779,-0.009 0.10228,-19.390595 1.75779,0.0093 q 0.59352,2.03563 1.41343,2.809008 0.87483,0.773669 2.52276,0.782361 l 62.89585,0.331754 q 1.70286,0.009 2.58581,-0.755414 0.88295,-0.764397 1.44298,-2.793942 l 1.75779,0.0093 -0.10228,19.390598 -1.75779,-0.009 q -0.53888,-1.980409 -1.414,-2.699147 -0.87484,-0.773668 -2.5777,-0.78265 l -23.23576,-0.12256 z" />
      <path
         id="LetterVInStv"
         d="m 592.59212,149.57854 30.25208,-37.6974 q 1.9227,-2.39749 2.30661,-3.88689 0.58957,-2.2873 -2.74292,-3.88373 l 0.43875,-1.70218 24.84112,6.40304 -0.43875,1.70217 q -2.42276,-0.28412 -3.58754,0.49346 -1.16479,0.77758 -4.6466,5.04228 l -39.15921,47.82474 q -2.487,3.04621 -2.76122,4.11007 -0.69926,2.71284 2.5285,4.05537 l -0.43875,1.70218 -25.00071,-6.44417 0.43875,-1.70218 q 3.47456,0.38506 4.18753,-2.38097 0.26051,-1.01067 -0.44406,-4.87955 L 567.20434,97.539446 q -0.98641,-5.416424 -1.63018,-6.660177 -0.64377,-1.243754 -2.902,-2.166196 l 0.43876,-1.702175 25.79859,6.649831 -0.43875,1.702176 q -3.68898,-0.213417 -4.27855,2.073882 -0.38391,1.489403 0.14027,4.517603 l 8.25964,47.62415 z" />
    </g>
  </g>
  <g
     id="g4578"><text
   id="text4254"
   y="680"
   x="460"
   style="fill-opacity:1;stroke:none;stroke-width:1px;stroke-linecap:butt;stroke-linejoin:miter;stroke-opacity:1"
   xml:space="preserve"><tspan
     y="680"
     x="460"
     id="tspan4256" /></text>
<g
   id="g4717" />

#000000;fill-opacity:1;stroke:none;stroke-width:1px;stroke-linecap:butt;stroke-linejoin:miter;stroke-opacity:1&quot;
       id=&quot;text4248&quot;&gt;
      <path
   id="path4644"
   d="M 719.125 764.88477 L 701.07031 776.50781 L 701.99805 777.94922 C 703.27184 777.55366 704.27449 777.46024 705.00391 777.66992 C 705.73332 777.87961 706.38704 778.43548 706.9668 779.33594 L 730.44727 815.80273 L 673.84766 802.37891 C 672.4468 802.04958 671.51459 801.52505 671.05078 800.80469 C 670.37439 799.75415 670.57427 798.64748 671.65234 797.48633 L 670.72461 796.04688 L 649.83398 809.49609 L 650.76172 810.9375 C 652.03552 810.54194 653.03816 810.44852 653.76758 810.6582 C 654.49699 810.86789 655.15071 811.42377 655.73047 812.32422 L 689.24023 864.36914 C 689.83932 865.29961 690.08366 866.13982 689.97266 866.89062 C 689.86165 867.64142 689.36386 868.51586 688.47656 869.51172 L 689.40234 870.95312 L 707.45703 859.32812 L 706.5293 857.88672 C 705.2555 858.28228 704.2548 858.3757 703.52539 858.16602 C 702.79597 857.95632 702.13033 857.38554 701.53125 856.45508 L 677.47266 819.08789 L 734.81445 832.47852 C 737.25145 833.03234 738.66427 833.61064 739.05078 834.21094 C 739.70784 835.23145 739.49296 836.28148 738.40625 837.36328 L 739.33398 838.80469 L 758.69336 826.33984 L 757.76562 824.89844 C 756.49183 825.294 755.48919 825.38742 754.75977 825.17773 C 754.03035 824.96805 753.36666 824.39726 752.76758 823.4668 L 719.25781 771.42188 C 718.67806 770.52143 718.44368 769.69611 718.55469 768.94531 C 718.66569 768.19452 719.16545 767.32008 720.05273 766.32422 L 719.125 764.88477 z M 280.29883 769.87695 L 279.48242 771.38281 C 280.74195 772.43039 281.5027 773.57394 281.76562 774.8125 C 282.07697 776.03667 282.05035 778.07264 281.68555 780.91992 L 274.41406 838.30469 C 274.03487 841.10357 273.71791 842.74009 273.46289 843.21094 C 272.5278 844.93738 270.89835 845.43416 268.57422 844.70312 L 267.75781 846.20898 L 288.42969 857.40625 L 289.24414 855.89844 C 287.24432 854.04392 286.6359 852.39511 287.41797 850.95117 C 287.69 850.44894 288.75934 849.4849 290.62695 848.06055 L 325.41406 818.91406 L 319.89844 862.94141 C 319.66442 865.69713 319.38553 867.37234 319.0625 867.96875 C 318.11042 869.72658 316.4429 870.18271 314.05859 869.33789 L 313.24219 870.8457 L 334.19531 882.19336 L 335.01172 880.6875 C 332.98705 879.10371 332.39154 877.54201 333.22461 876.00391 C 333.63265 875.25055 334.88721 873.98129 336.99023 872.19727 L 381.08203 834.75391 C 383.39823 832.80115 385.04128 831.64294 386.01172 831.27539 C 386.98216 830.90784 388.37022 830.92922 390.17773 831.33984 L 390.99414 829.83203 L 368.91211 817.87109 L 368.0957 819.37891 C 370.11775 821.04247 370.75393 822.56417 370.00586 823.94531 C 369.56383 824.76145 368.56417 825.82228 367.00391 827.12891 L 336.1543 853.8418 L 341.55469 812.61523 C 341.76913 810.94506 342.01118 809.85771 342.2832 809.35547 C 343.08228 807.88015 344.70204 807.43822 347.14258 808.0293 L 347.95898 806.52344 L 324.60547 793.875 L 323.78906 795.38086 C 325.67116 796.92803 326.22152 798.42325 325.43945 799.86719 C 325.18443 800.33803 324.35837 801.15044 322.96289 802.30273 L 290.69922 829.03906 L 296.40039 788.1582 C 296.62922 786.53642 296.93904 785.36454 297.33008 784.64258 C 298.09514 783.23004 299.5852 782.83907 301.80078 783.4707 L 302.61719 781.96484 L 280.29883 769.87695 z M 625.31445 815.87891 L 623.66406 816.34375 C 623.67 817.67754 623.47239 818.68094 623.06836 819.35156 C 622.65461 819.98782 621.93098 820.45096 620.90039 820.74219 L 558.24023 838.44922 L 558.70703 840.09766 C 560.04082 840.09172 561.02584 840.29524 561.66211 840.70898 C 562.29838 841.12273 562.76743 841.86279 563.06836 842.92773 L 579.88672 902.44336 C 580.18767 903.50831 580.17523 904.38476 579.84961 905.07031 C 579.52399 905.75587 578.79003 906.44567 577.65039 907.13867 L 578.11719 908.78711 L 642.01367 890.73047 C 643.04426 890.43925 643.90233 890.45758 644.58789 890.7832 C 645.27344 891.10883 645.96325 891.84084 646.65625 892.98047 L 648.30469 892.51367 L 643.16406 874.32422 L 641.51562 874.79102 C 641.52156 876.12481 641.31804 877.10983 640.9043 877.74609 C 640.49056 878.38236 639.76887 878.84549 638.73828 879.13672 L 593.49414 891.92188 L 588.04883 872.64844 L 616.5957 864.58203 C 617.6263 864.2908 618.49029 864.32557 619.18555 864.68555 C 619.8711 865.01117 620.55498 865.72674 621.23828 866.83203 L 622.88672 866.36523 L 617.86328 848.58789 L 616.21484 849.05469 C 616.22078 850.38847 616.01726 851.37351 615.60352 852.00977 C 615.18978 852.64603 614.46614 853.10916 613.43555 853.40039 L 584.88867 861.4668 L 580.17188 844.77148 L 624.17773 832.33594 C 625.20833 832.04472 626.0664 832.06305 626.75195 832.38867 C 627.43751 832.71429 628.12139 833.42987 628.80469 834.53516 L 630.45312 834.06836 L 625.31445 815.87891 z M 411.56641 831.63477 L 411.18945 833.30664 C 412.36415 833.93839 413.13075 834.58849 413.49219 835.25586 C 413.85361 835.92323 413.91794 836.77771 413.68164 837.82227 L 400.02148 898.19922 C 399.7773 899.27859 399.34981 900.04146 398.73633 900.48828 C 398.12283 900.93512 397.14864 901.18931 395.81641 901.25391 L 395.43945 902.92578 L 417.6875 907.95898 L 418.06641 906.28711 C 416.91865 905.69806 416.14625 905.06588 415.75 904.39062 C 415.39645 903.68844 415.34176 902.79812 415.58594 901.71875 L 429.24414 841.34375 C 429.48044 840.29919 429.90604 839.55424 430.51953 839.10742 C 431.14089 838.62578 432.11314 838.36964 433.4375 838.33984 L 433.81641 836.66797 L 411.56641 831.63477 z M 497.10742 841.52344 C 485.96955 841.50561 477.61066 844.15081 472.0332 849.46094 C 467.77863 853.48805 465.64659 858.58982 465.63672 864.76562 C 465.63072 868.51395 466.46549 871.83622 468.13867 874.73047 C 469.98985 877.94629 472.53723 880.35908 475.7832 881.9707 C 478.06606 883.1167 480.34898 883.95891 482.63281 884.49805 C 484.91671 885.00148 488.8251 885.54497 494.35742 886.125 L 502.60352 886.99414 C 508.13578 887.60987 511.81139 888.27531 513.63086 888.99219 C 516.23529 890.03161 517.53525 891.76587 517.53125 894.19336 C 517.52868 895.79978 516.97233 897.35205 515.86328 898.84961 C 514.75429 900.31146 513.2718 901.48747 511.41406 902.37695 C 508.05585 903.97801 504.00178 904.77322 499.25391 904.76562 C 494.89871 904.75865 490.29593 904.00319 485.44336 902.49609 C 480.59079 900.98899 477.00457 899.19727 474.6875 897.12305 C 473.15455 895.76405 472.38991 894.2822 472.39258 892.67578 C 472.39272 892.53299 472.39401 892.2998 472.39453 891.97852 L 470.8418 891.22656 L 462.88867 909.15234 L 464.43945 909.95898 C 465.44026 909.1753 466.17264 908.78254 466.63672 908.7832 C 467.0294 908.78383 468.22504 909.25028 470.22266 910.18164 C 479.63958 914.83753 489.18513 917.17399 498.85938 917.18945 C 504.24982 917.19808 509.30328 916.54572 514.01758 915.23242 C 520.33898 913.49332 525.00137 910.8044 528.00586 907.16797 C 531.33223 903.17508 532.99961 898.6093 533.00781 893.46875 C 533.01301 890.2202 532.30422 887.16675 530.88086 884.30859 C 529.4932 881.4505 527.5868 879.14373 525.16211 877.39062 C 522.77301 875.70897 520.02614 874.40188 516.92188 873.46875 C 513.85331 872.53568 509.82113 871.79739 504.82422 871.25391 L 496.41797 870.38477 C 490.77855 869.80457 487.10139 869.26229 485.38867 868.75977 C 482.07006 867.7549 480.4133 865.87768 480.41797 863.12891 C 480.42066 861.45109 481.06609 859.90048 482.35352 858.47461 C 483.67664 857.0488 485.39266 855.98013 487.5 855.26953 C 490.39305 854.34606 493.73161 853.88658 497.51562 853.89258 C 506.08322 853.9063 513.53951 856.1316 519.88672 860.56836 C 521.95505 861.96391 522.98833 863.26868 522.98633 864.48242 C 522.98599 864.69661 522.96791 864.98292 522.93164 865.33984 L 524.42969 866.19922 L 533.18555 849.02344 L 531.6875 848.21875 C 530.68663 849.03834 529.81216 849.44665 529.0625 849.44531 C 528.59842 849.44457 527.33091 849.03336 525.26172 848.20898 C 519.23276 845.66474 514.20234 843.92485 510.16992 842.99023 C 506.13756 842.0199 501.7839 841.5309 497.10742 841.52344 z "
   style="fill:#ffffff" />
</g>
</svg>
